<svg width="1350" height="662" viewBox="0 0 1350 662" fill="none" xmlns="http://www.w3.org/2000/svg">
<g clip-path="url(#clip0_16_48)">
<path d="M2.42604 165.5C8.69569 82.7145 -19.1419 44.0585 15.6694 3.08733e-06C46.2375 -38.6915 74.4367 3.08733e-06 133.194 3.08733e-06C199.792 3.08733e-06 199.792 3.08733e-06 266.389 3.08733e-06C332.986 3.08733e-06 332.986 3.08733e-06 399.583 3.08733e-06C458.779 3.08733e-06 459.997 -5.14232 517.974 3.08733e-06C526.594 0.768396 527.012 11.8214 532.778 11.8214C536.079 11.8214 531.313 0.425575 536.108 3.08733e-06C597.91 -5.48514 601.04 3.08733e-06 665.972 3.08733e-06C732.569 3.08733e-06 732.569 3.08733e-06 799.167 3.08733e-06C865.764 3.08733e-06 865.764 3.08733e-06 932.361 3.08733e-06C998.958 3.08733e-06 998.958 3.08733e-06 1065.56 3.08733e-06C1132.15 3.08733e-06 1132.15 3.08733e-06 1198.75 3.08733e-06C1265.35 3.08733e-06 1265.35 3.08733e-06 1331.94 3.08733e-06C1398.54 3.08733e-06 1431.84 -41.375 1465.14 3.08733e-06C1498.44 41.375 1465.14 82.75 1465.14 165.5C1465.14 248.25 1465.14 248.25 1465.14 331C1465.14 413.75 1465.14 413.75 1465.14 496.5C1465.14 579.25 1498.44 620.625 1465.14 662C1431.84 703.375 1398.54 662 1331.94 662C1265.35 662 1265.35 662 1198.75 662C1132.15 662 1132.15 662 1065.56 662C998.958 662 998.958 662 932.361 662C865.764 662 865.764 662 799.167 662C732.569 662 732.569 662 665.972 662C656.458 662 656.411 663.04 646.944 662C589.814 655.735 578.016 682.25 532.778 647.401C470.585 599.5 483.724 570.478 432.073 496.5C417.127 475.091 419.087 456.626 399.583 456.626C362.479 456.626 321.484 458.66 318.858 496.5C314.348 561.341 399.897 616.003 385.312 662C373.658 698.753 325.851 662 266.389 662C199.792 662 199.792 662 133.194 662C66.5972 662 39.416 695.774 -5.58331e-06 662C-27.1812 638.712 -5.6798 603.543 -5.58331e-06 547.864C2.75902 520.793 16.8871 523.346 16.8871 496.5C16.8871 435.596 6.35527 434.65 -5.58331e-06 372.375C-2.09306 351.9 -5.58331e-06 351.687 -5.58331e-06 331C-5.58331e-06 268.937 -0.913339 268.902 -5.58331e-06 206.875C0.304439 186.152 0.865758 186.152 2.42604 165.5Z" stroke="#212323" stroke-opacity="0.04" stroke-width="2"/>
<path d="M932.361 86.6865C909.309 86.6865 877.999 131.419 877.999 165.5C877.999 191.507 907.511 206.875 932.361 206.875C950 206.875 962.977 189.001 962.977 165.5C962.977 128.913 951.798 86.6865 932.361 86.6865Z" stroke="#212323" stroke-opacity="0.04" stroke-width="2"/>
<path d="M532.778 285.026C527.402 285.026 522.988 309.627 522.988 331C522.988 338.79 527.64 343.353 532.778 343.353C538.486 343.353 544.67 339.31 544.67 331C544.67 310.147 538.239 285.026 532.778 285.026Z" stroke="#212323" stroke-opacity="0.04" stroke-width="2"/>
<path d="M799.167 288.561C788.768 288.561 777.332 309.201 777.332 331C777.332 356.274 788.816 382.719 799.167 382.719C809.242 382.719 818.194 356.392 818.194 331C818.194 309.308 809.194 288.561 799.167 288.561Z" stroke="#212323" stroke-opacity="0.04" stroke-width="2"/>
<path d="M1065.56 326.201C1062.83 327.324 1061.26 327.489 1061.26 331C1061.26 385.048 1039.57 434.721 1065.56 441.329C1108.32 452.205 1132.75 405.168 1198.75 365.968C1225.64 349.997 1251.32 352.101 1251.32 331C1251.32 306.411 1229.62 275.368 1198.75 274.576C1136.74 272.969 1131.57 299.106 1065.56 326.201Z" stroke="#212323" stroke-opacity="0.04" stroke-width="2"/>
<path d="M62.9629 165.5C57.4924 88.7553 82.7328 72.7491 113.605 2.38245e-06C117.849 -10.0009 123.395 2.38245e-06 133.194 2.38245e-06C163.468 2.38245e-06 164.067 -5.53243 193.741 2.38245e-06C230.664 6.88007 230.369 11.1476 266.389 24.825C333.291 50.2293 338.894 38.4078 399.583 78.1515C446.306 108.745 464.592 109.017 481.222 165.5C501.81 235.436 497.729 260.923 474.02 331C456.914 381.56 442.824 385.65 399.583 406.775C339.008 436.364 323.463 401.562 266.389 432.44C240.559 446.424 233.766 465.303 233.766 496.5C233.766 524.174 251.005 522.531 266.389 550.181C297.043 605.281 325.851 625.956 325.851 662C325.851 681.872 296.12 662 266.389 662C199.792 662 199.792 662 133.194 662C79.4029 662 40.7765 698.174 25.6114 662C6.06986 615.424 34.6686 573.15 63.7811 496.5C88.4601 431.518 93.0839 430.536 133.194 378.735C157.169 347.786 191.952 356.31 191.952 331C191.952 304.224 158.853 307.499 133.194 274.576C94.3588 224.749 67.2822 226.049 62.9629 165.5Z" stroke="#212323" stroke-opacity="0.04" stroke-width="2"/>
<path d="M665.972 70.2075C638.306 40.9731 619.354 21.4559 619.354 6.92822e-07C619.354 -13.6537 642.663 6.92822e-07 665.972 6.92822e-07C732.569 6.92822e-07 732.569 6.92822e-07 799.167 6.92822e-07C825.806 6.92822e-07 850.941 -22.839 852.444 6.92822e-07C856.383 59.911 833.721 84.3932 810.041 165.5C807.082 175.631 805.864 182.476 799.167 182.476C788.844 182.476 787.122 174.874 776 165.5C720.525 118.746 716.624 123.723 665.972 70.2075Z" stroke="#212323" stroke-opacity="0.04" stroke-width="2"/>
<path d="M1001.25 165.5C1003.92 89.3109 924.065 44.7323 941.447 2.49218e-06C956.222 -38.0177 1003.51 2.49218e-06 1065.56 2.49218e-06C1132.15 2.49218e-06 1132.15 2.49218e-06 1198.75 2.49218e-06C1265.35 2.49218e-06 1265.35 2.49218e-06 1331.94 2.49218e-06C1389.03 2.49218e-06 1437.42 -35.4643 1446.11 2.49218e-06C1457.69 47.2857 1366.78 100.104 1372.48 165.5C1376.3 209.334 1440.6 174.626 1465.14 218.46C1486.93 257.376 1465.14 274.73 1465.14 331C1465.14 413.75 1465.14 413.75 1465.14 496.5C1465.14 579.25 1498.44 620.625 1465.14 662C1431.84 703.375 1398.54 662 1331.94 662C1265.35 662 1265.35 662 1198.75 662C1132.15 662 1132.15 662 1065.56 662C998.958 662 998.958 662 932.361 662C865.764 662 865.764 662 799.167 662C755.079 662 710.992 690.419 710.992 662C710.992 612.634 741.065 534.754 799.167 506.43C851.75 480.789 864.689 536.811 932.361 554.07C997.883 570.786 1007.12 591.97 1065.56 574.38C1102.77 563.185 1092.13 532.059 1123.68 496.5C1158.73 456.993 1157.94 453.718 1198.75 424.236C1262.06 378.498 1267.82 388.57 1331.94 346.049C1338.12 341.947 1339.35 339.228 1339.35 331C1339.35 313.315 1343.11 306.175 1331.94 294.224C1272.82 230.943 1267.83 187.807 1198.75 180.549C1134.64 173.81 1128.45 216.746 1065.56 266.242C1032.86 291.977 1034 295.583 1007.55 331C967.401 384.752 968.609 444.58 932.361 444.58C897.721 444.58 865.764 383.168 865.764 331C865.764 290.181 900.851 297.084 932.361 258.594C968.6 214.334 999.387 218.614 1001.25 165.5Z" stroke="#212323" stroke-opacity="0.04" stroke-width="2"/>
<path d="M604.132 331C638.43 287.296 635.851 235.376 665.972 235.376C695.151 235.376 722.742 280.948 722.742 331C722.742 392.034 696.065 395.663 665.972 457.56C655.84 478.413 657.629 481.652 642.292 496.5C591.031 546.15 582.174 586.556 532.778 586.556C497.367 586.556 472.679 541.658 472.679 496.5C472.679 450.94 499.565 446.921 532.778 405.109C565.296 364.171 571.832 372.162 604.132 331Z" stroke="#212323" stroke-opacity="0.04" stroke-width="2"/>
<path d="M123.509 165.5C123.509 152.508 122.215 140.781 133.194 137.921C193.655 122.163 201.409 119.857 266.389 128.263C307.965 133.641 309.211 140.569 346.306 165.5C375.808 185.325 383.134 183.197 399.583 217.763C422.502 265.947 425.042 279.376 425.042 331C425.042 348.957 414.767 356.924 399.583 356.924C356.466 356.924 347.029 357.681 308.45 331C280.431 311.625 293.76 288.289 266.389 264.8C206.128 213.069 197.917 225.529 133.194 180.549C126.478 175.879 123.509 173.822 123.509 165.5Z" stroke="#212323" stroke-opacity="0.04" stroke-width="2"/>
<path d="M1039.53 165.5C1021.04 86.7811 1007.54 60.904 1017.12 -2.2623e-06C1020.55 -21.846 1041.34 -2.2623e-06 1065.56 -2.2623e-06C1132.15 -2.2623e-06 1132.15 -2.2623e-06 1198.75 -2.2623e-06C1265.35 -2.2623e-06 1265.35 -2.2623e-06 1331.94 -2.2623e-06C1349.39 -2.2623e-06 1366.83 -11.3722 1366.83 -2.2623e-06C1366.83 20.0137 1357.9 59.58 1331.94 62.7718C1273.85 69.9237 1250.37 -4.95318 1198.75 20.6875C1146.98 46.4109 1169.73 103.367 1125.14 165.5C1103.14 196.165 1092.05 206.272 1065.56 206.272C1049.24 206.272 1045.26 189.911 1039.53 165.5Z" stroke="#212323" stroke-opacity="0.04" stroke-width="2"/>
<path d="M663.594 331C663.594 329.061 664.812 327.324 665.972 327.324C667.095 327.324 668.16 329.073 668.16 331C668.16 333.352 667.104 335.87 665.972 335.87C664.821 335.87 663.594 333.341 663.594 331Z" stroke="#212323" stroke-opacity="0.04" stroke-width="2"/>
<path d="M913.333 331C913.333 319.332 922.6 310.312 932.361 310.312C942.855 310.312 953.844 319.167 953.844 331C953.844 345.729 942.722 363.45 932.361 363.45C922.467 363.45 913.333 345.907 913.333 331Z" stroke="#212323" stroke-opacity="0.04" stroke-width="2"/>
<path d="M110.685 496.5C110.685 474.488 120.531 458.305 133.194 458.305C148.093 458.305 165.818 472.231 165.818 496.5C165.818 553.397 147.161 620.625 133.194 620.625C119.59 620.625 110.685 555.654 110.685 496.5Z" stroke="#212323" stroke-opacity="0.04" stroke-width="2"/>
<path d="M513.284 496.5C513.284 481.723 521.266 466.864 532.778 466.864C548.771 466.864 568.293 481.759 568.293 496.5C568.293 511.182 548.799 525.711 532.778 525.711C521.295 525.711 513.284 511.147 513.284 496.5Z" stroke="#212323" stroke-opacity="0.04" stroke-width="2"/>
<path d="M1184.22 496.5C1190.57 488.26 1190.04 482.515 1198.75 482.515C1233.62 482.515 1259.56 464.606 1271.4 496.5C1292.86 554.342 1289.57 606.818 1265.35 662C1253.25 689.568 1232.05 662 1198.75 662C1132.15 662 1132.15 662 1065.56 662C998.958 662 998.958 662 932.361 662C865.764 662 865.764 662 799.167 662C778.531 662 757.895 675.299 757.895 662C757.895 638.889 769.674 592.218 799.167 589.18C856.906 583.222 864.109 627.009 932.361 644.008C997.303 660.179 1010.97 687.475 1065.56 655.51C1136.9 613.721 1123.97 574.758 1184.22 496.5Z" stroke="#212323" stroke-opacity="0.04" stroke-width="2"/>
</g>
<defs>
<clipPath id="clip0_16_48">
<rect width="1370" height="662" fill="white"/>
</clipPath>
</defs>
</svg>
